<svg xmlns="http://www.w3.org/2000/svg" enable-background="new 206 -206 512 512" viewBox="206 -206 512 512" id="market-research">
  <path d="M340 40h-36c-5.5 0-10 4.5-10 10v145c0 5.5 4.5 10 10 10h36c5.5 0 10-4.5 10-10V50C350 44.5 345.5 40 340 40zM329 186h-15V60h15V186zM413 19h-36c-5.5 0-10 4.5-10 10v167c0 5.5 4.5 10 10 10h36c5.5 0 10-4.5 10-10V29C423 23.5 418.5 19 413 19zM402 186h-15V39h15V186zM267 120h-36c-5.5 0-10 4.5-10 10v66c0 5.5 4.5 10 10 10h36c5.5 0 10-4.5 10-10v-66C277 124.5 272.5 120 267 120zM257 186h-16v-46h16V186zM230.2 76.5L400.6-93.9l34.5 34.5c3.9 3.9 10.2 3.9 14.1 0 0 0 0 0 0 0l105.3-105.3-.1 38.9c0 5.4 4.4 9.8 9.9 9.8 0 0 .1 0 .1 0h0c5.4.1 9.9-4.3 10-9.7 0 0 0-.1 0-.1l.1-63.1c0-2.6-1-5.2-2.9-7-1.9-1.9-4.4-2.9-7.1-2.9l-63.3.1c-5.5-.1-10 4.3-10.1 9.7s4.3 10 9.7 10.1c.1 0 .2 0 .3 0h0l39 0-98.2 98.3-34.5-34.4c-3.9-3.9-10.2-3.9-14.1 0 0 0 0 0 0 0L216.1 62.4c-3.9 3.9-3.9 10.2 0 14.1C220 80.4 226.3 80.4 230.2 76.5zM642.2 187.9c-1.9-1.9-4.4-2.9-7.1-2.9l0 0c-2.7 0-5.2 1.1-7.1 2.9l-6.9 7-8-8c36.9-44.4 30.7-110.3-13.6-147.1-9.7-8-20.7-14.2-32.5-18.3v-93.5c-.1-5.6-4.7-10-10.2-9.9H521c-5.5 0-10 4.4-10 9.9 0 0 0 0 0 0v90c-5.5 1.1-10.8 2.7-16 4.9v-46.7c0-5.5-5-10.1-10.5-10.1h-35.8c-5.5.1-9.8 4.5-9.8 10 0 0 0 .1 0 .1v97.7c-7.1 14.5-10.9 30.4-11.1 46.5C427.9 178 474.6 224.9 532.4 225c24.3 0 47.9-8.4 66.7-23.9l8 8-7.1 7.1c-3.9 3.9-3.9 10.2 0 14.1 0 0 0 0 0 0l59.9 59.8c11.6 11.7 30.5 11.8 42.2.2 0 0 .1-.1.1-.1 11.6-11.7 11.6-30.6 0-42.2L642.2 187.9zM531-62h16v78.7c-4.8-.6-9.6-1-14.4-1-.5 0-1.6 0-1.6 0V-62zM459-14h16v47.2c-5.8 3.7-11.1 8-16 12.8V-14zM532.5 205c-46.7-.1-84.6-37.9-84.7-84.7 0-13.8 3.3-27.3 9.8-39.5 7.3-13.9 18.4-25.5 32-33.5 10-5.9 21.1-9.7 32.6-11h0c3.4-.4 6.8-.6 10.2-.6 46.7 0 84.6 37.9 84.6 84.6S579.2 205 532.5 205L532.5 205zM688 276c-3.8 3.9-10 3.9-13.9.1 0 0 0 0-.1-.1l-52.9-52.8 14-14L688 262C691.8 265.9 691.8 272.1 688 276 688 276 688 276 688 276L688 276z"></path>
  <path d="M532.5,43.1c-42.7,0-77.3,34.6-77.3,77.2s34.6,77.3,77.2,77.3s77.3-34.6,77.3-77.2c0,0,0,0,0-0.1
		C609.7,77.7,575.1,43.1,532.5,43.1z M532.5,177.6c-31.6,0-57.3-25.6-57.3-57.2c0-31.6,25.6-57.3,57.2-57.3
		c31.6,0,57.3,25.6,57.3,57.2C589.7,151.9,564.1,177.6,532.5,177.6L532.5,177.6z"></path>
</svg>
