<svg xmlns="http://www.w3.org/2000/svg" viewBox="0 0 64 64" id="research">
  <path d="M60.836,2.105a1,1,0,0,0-1-1H2.544a1,1,0,0,0-1,1V47.4a1,1,0,0,0,1,1H46.636l.162,11.05a3.462,3.462,0,0,0,3.459,3.405h.051l.238,0a3.456,3.456,0,0,0,3.405-3.507L53.79,48.4h6.046a1,1,0,0,0,1-1V37.841a14.216,14.216,0,0,0,0-18.213Zm-2,1V10.4H3.544V3.105ZM3.544,12.4H58.836v5.26a14.244,14.244,0,1,0-9.7,25.3l.041,2.764-1.576.023a.979.979,0,0,0-.922.665H3.544ZM48.626,47.724l3.152-.046.023,1.535-3.152.047Zm2.914,12.69a1.447,1.447,0,0,1-1.023.441h0l-.239,0h-.021A1.46,1.46,0,0,1,48.8,59.424l-.12-8.164,3.153-.047.12,8.164A1.443,1.443,0,0,1,51.54,60.414ZM53.711,46.4a.986.986,0,0,0-.947-.74h-.015l-1.576.023-.041-2.777a14.32,14.32,0,0,0,7.7-3.1v6.6Zm6.95-11.852a12.257,12.257,0,1,1-4.951-16.6A12.262,12.262,0,0,1,60.661,34.552Z"></path>
  <rect width="19.318" height="2" x="35.1" y="5.749"></rect>
  <rect width="4.488" height="2" x="7.231" y="5.749"></rect>
  <rect width="4.487" height="2" x="14.225" y="5.749"></rect>
  <path d="M54.684 19.855a10.086 10.086 0 104.077 13.671A10.1 10.1 0 0054.684 19.855zM57 32.575a8.085 8.085 0 11.636-6.158A8.033 8.033 0 0157 32.575zM32.16 16.41h-7.8a1 1 0 00-1 1v8.483h-5.8V21.72a1 1 0 00-1-1h-7.8a1 1 0 00-1 1V38.961a1 1 0 001 1H32.16a1 1 0 001-1V17.41A1 1 0 0032.16 16.41zM9.746 22.72h5.805V37.961h-5.8zm7.8 5.173h5.8V37.961h-5.8zM31.16 37.961h-5.8V18.41H31.16z"></path>
</svg>
