<svg xmlns="http://www.w3.org/2000/svg" viewBox="0 0 1000 1000" id="ai-idea">
  <g fill="#070707">
    <g>
      <path d="M662.06 431.8a92.62 92.62 0 1 1 89.55-68.94 92.77 92.77 0 0 1-89.55 68.94Zm0-175.54a83 83 0 1 0 21.21 2.74 83.08 83.08 0 0 0-21.18-2.74Z"></path>
      <path d="M667 508.63a4.84 4.84 0 0 1-4.59-3.3L648.87 465l-33.93-8.48L584 485.73a4.83 4.83 0 0 1-6 .49l-20.31-13.74a4.83 4.83 0 0 1-1.79-5.79l15.62-39.6L551 398.78l-42.49 2.48a4.85 4.85 0 0 1-4.94-3.51l-6.71-23.59a4.84 4.84 0 0 1 2.36-5.58l37.44-20.25 2.53-34.88L505 288a4.84 4.84 0 0 1-1.53-5.86l10-22.37A4.82 4.82 0 0 1 519 257l41.69 8.59L585 240.53l-9.75-41.43a4.85 4.85 0 0 1 2.61-5.47L600 183a4.85 4.85 0 0 1 5.91 1.36l26.38 33.41 34.79-3.5 19.21-38a4.81 4.81 0 0 1 5.52-2.51l23.76 6.05a4.84 4.84 0 0 1 3.64 4.84l-1.3 42.53 28.09 19 39-17.05a4.85 4.85 0 0 1 5.85 1.58l14.47 19.8a4.85 4.85 0 0 1-.27 6.05l-28.11 32 9.72 33.6 40.82 12a4.83 4.83 0 0 1 3.46 5l-1.67 24.47a4.84 4.84 0 0 1-4.1 4.46l-42.08 6.38-14.18 32 23.5 35.49a4.84 4.84 0 0 1-.55 6l-17 17.65a4.83 4.83 0 0 1-6 .77l-36.32-22.2L701 459.49l-4.85 42.29a4.85 4.85 0 0 1-4.31 4.27l-24.39 2.56Zm-53.45-62.33a4.78 4.78 0 0 1 1.17.15l39.08 9.77a4.83 4.83 0 0 1 3.42 3.16l13.13 39.2 16.65-1.76 4.71-41.07a4.85 4.85 0 0 1 2.69-3.8l36.2-17.67a4.86 4.86 0 0 1 4.65.22l35.27 21.56L782.16 444l-22.82-34.46a4.84 4.84 0 0 1-.39-4.64l16.34-36.82a4.85 4.85 0 0 1 3.7-2.82l40.87-6.2 1.14-16.72-39.64-11.7a4.84 4.84 0 0 1-3.28-3.3l-11.19-38.7a4.84 4.84 0 0 1 1-4.54l27.29-31-9.89-13.53-37.87 16.53a4.83 4.83 0 0 1-4.65-.43l-32.51-22a4.85 4.85 0 0 1-2.13-4.16l1.27-41.32-16.24-4.13L674.5 221a4.83 4.83 0 0 1-3.83 2.63l-40.07 4a4.84 4.84 0 0 1-4.29-1.82l-25.62-32.44-15.09 7.29 9.46 40.24a4.86 4.86 0 0 1-1.24 4.49l-28.08 28.87a4.82 4.82 0 0 1-4.45 1.36l-40.49-8.34-6.86 15.29 33.14 24.71a4.84 4.84 0 0 1 1.92 4.22l-2.91 40.17a4.84 4.84 0 0 1-2.53 3.91l-36.36 19.67 4.58 16.11 41.29-2.36a4.87 4.87 0 0 1 4.21 2l23.62 32.62a4.83 4.83 0 0 1 .58 4.62l-15.17 38.45 13.88 9.31 30-28.4a4.85 4.85 0 0 1 3.36-1.3Z"></path>
    </g>
    <path d="M571.77 755.87c-17 0-47.58-.09-60.84-.3-16.05-.25-44.88.06-56.54.2a11.77 11.77 0 0 1-12-11.55c-.77-35.44-15-134.53-44.06-158.15-47.23-38.41-77.75-102.32-77.75-162.82 0-99.32 91.19-189.77 191.31-189.77a182.85 182.85 0 0 1 70.55 14.09 4.84 4.84 0 0 1-3.72 8.94 173.24 173.24 0 0 0-66.83-13.35c-95.06 0-181.62 85.84-181.62 180.08 0 57.7 29.12 118.66 74.18 155.31C441 608.29 451.64 724 452.08 744a2.09 2.09 0 0 0 2.18 2.07c11.69-.15 40.63-.45 56.81-.2 13.21.21 43.7.28 60.7.3a2.13 2.13 0 0 0 2.16-2c1.77-29.73 9.9-129.26 40.3-161.85 23.06-24.71 46.89-50.27 62-82a4.84 4.84 0 0 1 8.75 4.16c-15.76 33.12-41.21 60.41-63.67 84.49s-34.17 96.24-37.71 155.82a11.85 11.85 0 0 1-11.83 11.08zm22.81 39.25H431.49a4.84 4.84 0 0 1 0-9.68h163.09a4.84 4.84 0 0 1 0 9.68zm-31.82 39.94h-99.44a4.84 4.84 0 1 1 0-9.68h99.44a4.84 4.84 0 1 1 0 9.68zM534.34 875h-42.6a4.84 4.84 0 0 1 0-9.68h42.6a4.84 4.84 0 1 1 0 9.68zM218.43 598.11a4.84 4.84 0 0 1-2.49-9l63.29-37.82a4.84 4.84 0 0 1 5 8.32l-63.29 37.82a4.84 4.84 0 0 1-2.51.68zm34.26-171.73h-78.77a4.84 4.84 0 1 1 0-9.68h78.76a4.84 4.84 0 1 1 0 9.68zm30.63-134.29a4.82 4.82 0 0 1-2.52-.71l-66.51-40.48a4.84 4.84 0 0 1 5-8.27l66.52 40.49a4.84 4.84 0 0 1-2.52 9zm100.34-88.91a4.83 4.83 0 0 1-4.14-2.33L338 132.35a4.84 4.84 0 1 1 8.28-5l41.52 68.49a4.84 4.84 0 0 1-4.14 7.35z"></path>
    <path d="M551.66 754.44a4.84 4.84 0 0 1-4.84-4.84V613a4.84 4.84 0 0 1 .79-2.65l49.51-75.49a4.84 4.84 0 1 1 8.1 5.31l-48.72 74.24V749.6a4.84 4.84 0 0 1-4.84 4.84zm-37.35 0a4.84 4.84 0 0 1-4.84-4.84V613a4.84 4.84 0 1 1 9.68 0v136.6a4.84 4.84 0 0 1-4.84 4.84zm-37.31 0a4.84 4.84 0 0 1-4.84-4.84V614.19L425.19 527a4.84 4.84 0 0 1 8.52-4.59l47.52 88.26a4.83 4.83 0 0 1 .58 2.29V749.6a4.84 4.84 0 0 1-4.81 4.84z"></path>
    <path d="M514.31 613.66a20.39 20.39 0 1 1 20.39-20.39 20.42 20.42 0 0 1-20.39 20.39zm0-31.1A10.71 10.71 0 1 0 525 593.27a10.72 10.72 0 0 0-10.69-10.71zm-29.52-12.22a20.39 20.39 0 0 1-.2-40.79h.2a20.39 20.39 0 0 1 .21 40.79zm0-31.1h-.11a10.71 10.71 0 0 0-7.38 18.36 10.92 10.92 0 0 0 7.6 3.06 10.71 10.71 0 0 0-.11-21.42zm-48.28-147.77a20.39 20.39 0 0 1-.21-40.79 19.84 19.84 0 0 1 14.48 5.83 20.39 20.39 0 0 1-14.07 35zm0-31.1h-.11a10.71 10.71 0 0 0 .11 21.42h.11a10.71 10.71 0 0 0-.1-21.42zm77.79 108.89a20.16 20.16 0 1 1 .22 0zm0-31.1h-.11a10.83 10.83 0 1 0 .11 0zm35.85 141.04a20.39 20.39 0 0 1-.2-40.78 20 20 0 0 1 14.48 5.83 20.39 20.39 0 0 1-14.07 35zm0-31.1H550a10.71 10.71 0 0 0-10.6 10.82 11 11 0 0 0 10.81 10.6 10.7 10.7 0 0 0 10.6-10.82 10.71 10.71 0 0 0-10.71-10.6zM421 530.62a20.39 20.39 0 1 1 20.39-20.39A20.42 20.42 0 0 1 421 530.62zm0-31.1a10.71 10.71 0 1 0 10.71 10.71A10.72 10.72 0 0 0 421 499.52zm189 45.58a20.39 20.39 0 1 1 20.39-20.39A20.42 20.42 0 0 1 610 545.1zm0-31.1a10.71 10.71 0 1 0 10.71 10.71A10.72 10.72 0 0 0 610 514z"></path>
    <path d="M484.64 539.24a4.84 4.84 0 0 1-4.84-4.71L478.6 490l-35.84-35a4.82 4.82 0 0 1-1.4-2.73l-9.63-62.93a4.84 4.84 0 0 1 9.57-1.46l9.39 61.33 36.08 35.25a4.83 4.83 0 0 1 1.46 3.34l1.25 46.5a4.84 4.84 0 0 1-4.71 5zm68.92 8.86a4.84 4.84 0 0 1-4.84-4.82l-.1-22.15-32.12-16.24a4.85 4.85 0 0 1-2.62-3.76L509.66 465a4.84 4.84 0 0 1 9.62-1.12l3.91 33.57 32.44 16.4a4.84 4.84 0 0 1 2.65 4.3l.11 25.11a4.84 4.84 0 0 1-4.82 4.86z"></path>
  </g>
</svg>
