<svg xmlns="http://www.w3.org/2000/svg" viewBox="0 0 512 512" id="shipping">
  <path d="M259.9,263.09a11.71,11.71,0,0,1-4.08-.73L63.76,192a11.88,11.88,0,0,1,0-22.31l110-40.28a11.87,11.87,0,1,1,8.17,22.3l-79.53,29.14L259.9,238.56l157.53-57.71-79.5-29.13a11.88,11.88,0,0,1,8.17-22.31l110,40.28a11.88,11.88,0,0,1,0,22.31L264,262.36A11.72,11.72,0,0,1,259.9,263.09Z"></path>
  <path d="M259.9,483A11.88,11.88,0,0,1,248,471.12V251.21a11.88,11.88,0,0,1,21.15-7.44l45.76,57,160.33-66.67-33-46.38A11.88,11.88,0,0,1,461.64,174l41.61,58.51a11.87,11.87,0,0,1-5.12,17.85L315.82,326.15A11.88,11.88,0,0,1,302,322.61L271.78,285V471.12A11.88,11.88,0,0,1,259.9,483Z"></path>
  <path d="M452 192.68a11.88 11.88 0 01-10.8-16.82L471.29 110 300.18 55.32l-12 24.41a11.88 11.88 0 01-21.33-10.46l16.49-33.62a11.89 11.89 0 0114.28-6.08L491.27 91.39a11.88 11.88 0 017.19 16.26l-35.71 78.09A11.87 11.87 0 01452 192.68zM67.9 192.68a11.89 11.89 0 01-9.73-5.05L8.71 117.32a11.88 11.88 0 015.79-18L208.82 31.09a11.89 11.89 0 0113.7 4.46L245.2 68.38a11.87 11.87 0 01-19.54 13.5L208.13 56.51l-170.95 60L77.61 174a11.88 11.88 0 01-9.71 18.71zM259.9 483a11.94 11.94 0 01-4.08-.73L63.76 411.91a11.87 11.87 0 01-7.59-9 11.56 11.56 0 01-.16-3.26V300.87a11.88 11.88 0 0123.76 0v91.6l180.13 66 180.17-66v-94.1a11.88 11.88 0 0123.76 0V400.47a11.91 11.91 0 01-7.78 11.44L264 482.27A12 12 0 01259.9 483z"></path>
  <path d="M210.26 327.4a11.89 11.89 0 01-4.37-.83L20.17 253.1a11.88 11.88 0 01-5.33-17.91L58.15 174a11.88 11.88 0 1119.39 13.72L43 236.57l163.35 64.62L250.5 244a11.88 11.88 0 0118.81 14.52l-49.65 64.31A11.87 11.87 0 01210.26 327.4zM259.9 206.29A11.88 11.88 0 01248 194.41V110.84a11.88 11.88 0 0123.76 0v83.57A11.88 11.88 0 01259.9 206.29z"></path>
  <path d="M259.9 209.29a11.83 11.83 0 01-7.9-3l-40-35.67a11.88 11.88 0 1115.81-17.73L259.9 181.5 292 152.88a11.88 11.88 0 0115.82 17.73l-40 35.67A11.84 11.84 0 01259.9 209.29zM111.08 386.58A11.87 11.87 0 0199.2 374.71V342.24a11.88 11.88 0 0123.76 0v32.47A11.87 11.87 0 01111.08 386.58zM142.78 397.41a11.88 11.88 0 01-11.88-11.88V353.06a11.88 11.88 0 0123.76 0v32.47A11.88 11.88 0 01142.78 397.41z"></path>
</svg>
